<?xml version="1.0" encoding="UTF-8" standalone="no"?>
<!-- Created with Inkscape (http://www.inkscape.org/) -->

<svg
   xmlns:dc="http://purl.org/dc/elements/1.1/"
   xmlns:cc="http://creativecommons.org/ns#"
   xmlns:rdf="http://www.w3.org/1999/02/22-rdf-syntax-ns#"
   xmlns:svg="http://www.w3.org/2000/svg"
   xmlns="http://www.w3.org/2000/svg"
   version="1.1"
   width="49cm"
   height="12cm"
   viewBox="2600 0 26000 7700"
   id="svg3004">
  <title
     id="title3006">Ontwerp DJO logo</title>
  <desc
     id="desc3008">DJO Logo</desc>
  <metadata
     id="metadata3034">
    <rdf:RDF>
      <cc:Work
         rdf:about="">
        <dc:format>image/svg+xml</dc:format>
        <dc:type
           rdf:resource="http://purl.org/dc/dcmitype/StillImage" />
        <dc:title>Ontwerp DJO logo</dc:title>
      </cc:Work>
    </rdf:RDF>
  </metadata>
  <defs
     id="defs3032" />
  <path
     d="m 3900,627.4375 c -368.4998,0 -735.863,60.64264 -1084.8125,179.0625 -348.9497,118.41992 -677.3523,293.8991 -969.7187,518.1875 -292.3667,224.2885 -546.9114,496.0067 -751.6563,802.375 C 889.06756,2433.4309 735.38418,2772.5657 640,3128.5 c -95.38418,355.9343 -131.88191,726.4716 -107.78125,1094.1875 24.10066,367.716 108.66275,730.3509 249.6875,1070.8125 141.02476,340.4617 337.64515,656.6535 580.62495,933.7188 242.9798,277.0651 530.8241,513.2729 849.9688,697.5312 l 9.75,5.625 10.0312,5.0312 c 274.5968,137.2984 527.8878,228.9274 777.4688,260.125 249.581,31.1977 508.0546,-6.1042 719.625,-143.625 C 4152.5158,6776.8647 4275,6252.0833 4275,5600 l 0,-3000 a 375.0375,375.0375 0 1 0 -750,0 l 0,3000 c 0,547.9167 -127.5158,773.1353 -204.375,823.0938 -38.4296,24.9792 -92.456,43.9273 -217.875,28.25 -123.4641,-15.4331 -304.0028,-72.3449 -524.625,-181.625 -243.9523,-142.2159 -465.5496,-324.715 -651.7188,-537 -188.5609,-215.0125 -342.1536,-462.0401 -451.5937,-726.25 -109.4401,-264.2101 -175.4849,-547.4894 -194.1875,-832.8438 -18.7026,-285.3544 9.7953,-574.7983 83.8125,-851 74.0172,-276.2017 194.0903,-541.1073 352.9687,-778.8438 158.8785,-237.7365 357.7131,-449.9801 584.5938,-624.0312 226.8809,-174.0512 483.4107,-311.1295 754.2188,-403.0312 270.8082,-91.9018 557.7914,-139.2813 843.7812,-139.2813 285.9898,0 572.973,47.3795 843.7812,139.2813 270.8081,91.9017 527.3379,228.98 754.2188,403.0312 226.8807,174.0511 425.7153,386.2947 584.5938,624.0312 158.8784,237.7365 278.9515,502.6421 352.9687,778.8438 74.0172,276.2017 102.5151,565.6456 83.8125,851 -18.7026,285.3544 -84.7474,568.6337 -194.1875,832.8438 -109.4401,264.2099 -263.0328,511.2375 -451.5937,726.25 -188.561,215.0124 -413.4262,399.5403 -661.0938,542.5312 a 375.0375,375.0375 0 1 0 375,649.5 c 319.1447,-184.2583 606.989,-420.4661 849.9688,-697.5312 242.9798,-277.0653 439.6002,-593.2571 580.625,-933.7188 141.0247,-340.4616 225.5868,-703.0965 249.6874,-1070.8125 C 7291.8819,3854.9716 7255.3842,3484.4343 7160,3128.5 7064.6158,2772.5657 6910.9324,2433.4309 6706.1875,2127.0625 6501.4426,1820.6942 6246.8979,1548.976 5954.5312,1324.6875 5662.1648,1100.3991 5333.7622,924.91992 4984.8125,806.5 4635.863,688.08014 4268.4998,627.4375 3900,627.4375 z"
     id="badge"
     style="font-size:medium;font-style:normal;font-variant:normal;font-weight:normal;font-stretch:normal;text-indent:0;text-align:start;text-decoration:none;line-height:normal;letter-spacing:normal;word-spacing:normal;text-transform:none;direction:ltr;block-progression:tb;writing-mode:lr-tb;text-anchor:start;baseline-shift:baseline;color:#000000;fill:#202088;fill-opacity:1;stroke:none;stroke-width:750;marker:none;visibility:visible;display:inline;overflow:visible;enable-background:accumulate;font-family:Sans;-inkscape-font-specification:Sans" />
  <g
     id="kind"
     style="font-size:1200px;font-weight:normal;fill:#787899;font-family:VAG Rounded Std Thin">
    <path
       d="m 8285.6,838.4 c -158.3998,0 -252,120.0001 -252,219.6 0,279.5997 405.6,181.2002 405.6,384 0,94.7999 -66.0001,174 -175.2,174 -107.9999,0 -158.4,-66 -194.4,-66 -30,0 -44.4,25.2 -44.4,54 0,59.9999 124.8001,103.2 237.6,103.2 185.9998,0 289.2,-128.4001 289.2,-270 0,-287.9997 -405.6,-198.0002 -405.6,-386.4 0,-71.99993 57.6001,-121.2 135.6,-121.2 105.5999,0 121.2,55.2 168,55.2 26.4,0 45.6,-21.60003 45.6,-46.8 0,-55.19994 -104.4001,-99.6 -210,-99.6"
       id="path3056"
       style="font-size:1200px;font-weight:normal;fill:#787899;font-family:VAG Rounded Std Thin" />
    <path
       d="m 8658.6688,1061.6 -43.2,0 c -34.8,0 -52.8,16.8 -52.8,45.6 0,28.8 18,45.6 52.8,45.6 l 43.2,0 0,498 c 0,34.8 20.4,56.4 52.8,56.4 32.3999,0 52.7999,-21.6 52.7999,-56.4 l 0,-498 43.2001,0 c 34.7999,0 52.7999,-16.8 52.7999,-45.6 0,-28.8 -18,-45.6 -52.7999,-45.6 l -43.2001,0 0,-138 c 0,-34.79997 -20.4,-56.4 -52.7999,-56.4 -32.4,0 -52.8,21.60003 -52.8,56.4 l 0,138"
       id="path3058"
       style="font-size:1200px;font-weight:normal;fill:#787899;font-family:VAG Rounded Std Thin" />
    <path
       d="m 9018.95,1110.8 c 0,-34.8 -20.4,-56.4 -52.8,-56.4 -32.4,0 -52.8,21.6 -52.8,56.4 l 0,540 c 0,34.8 20.4,56.4 52.8,56.4 32.4,0 52.8,-21.6 52.8,-56.4 l 0,-540 m -117.6,-207.6 c 0,35.99996 28.8,64.8 64.8,64.8 36,0 64.8,-28.80004 64.8,-64.8 0,-35.99996 -28.8,-64.8 -64.8,-64.8 -36,0 -64.8,28.80004 -64.8,64.8"
       id="path3060"
       style="font-size:1200px;font-weight:normal;fill:#787899;font-family:VAG Rounded Std Thin" />
    <path
       d="m 9129.5,1380.8 c 0,169.1998 93.6002,326.4 288,326.4 109.1999,0 168,-43.2 168,-82.8 0,-28.8 -16.8,-44.4 -40.8,-44.4 -33.6,0 -52.8001,36 -127.2,36 -130.7999,0 -182.4,-127.2001 -182.4,-235.2 0,-107.9999 51.6001,-235.2 182.4,-235.2 71.9999,0 87.6,33.6 128.4,33.6 25.2,0 43.2,-22.8 43.2,-44.4 0,-43.2 -63.6001,-80.4 -171.6,-80.4 -194.3998,0 -288,157.2002 -288,326.4"
       id="path3062"
       style="font-size:1200px;font-weight:normal;fill:#787899;font-family:VAG Rounded Std Thin" />
    <path
       d="m 10089.931,1650.8 c 0,34.8 20.4,56.4 52.8,56.4 32.4,0 52.8,-21.6 52.8,-56.4 l 0,-354 c 0,-179.9998 -123.6,-242.4 -221.9997,-242.4 -63.6,0 -129.6001,24.0001 -176.4,84 l -2.4,-2.4 0,-306 c 0,-34.79997 -20.4001,-56.4 -52.8,-56.4 -32.4,0 -52.8,21.60003 -52.8,56.4 l 0,820.8 c 0,34.8 20.4,56.4 52.8,56.4 32.3999,0 52.8,-21.6 52.8,-56.4 l 0,-348 c 0,-111.5999 78,-157.2 147.5999,-157.2 69.5998,0 147.5998,45.6001 147.5998,157.2 l 0,348"
       id="path3064"
       style="font-size:1200px;font-weight:normal;fill:#787899;font-family:VAG Rounded Std Thin" />
    <path
       d="m 10364.919,1061.6 -43.2,0 c -34.8,0 -52.8,16.8 -52.8,45.6 0,28.8 18,45.6 52.8,45.6 l 43.2,0 0,498 c 0,34.8 20.4,56.4 52.8,56.4 32.4,0 52.8,-21.6 52.8,-56.4 l 0,-498 43.2,0 c 34.8,0 52.8,-16.8 52.8,-45.6 0,-28.8 -18,-45.6 -52.8,-45.6 l -43.2,0 0,-138 c 0,-34.79997 -20.4,-56.4 -52.8,-56.4 -32.4,0 -52.8,21.60003 -52.8,56.4 l 0,138"
       id="path3066"
       style="font-size:1200px;font-weight:normal;fill:#787899;font-family:VAG Rounded Std Thin" />
    <path
       d="m 10725.2,1110.8 c 0,-34.8 -20.4,-56.4 -52.8,-56.4 -32.4,0 -52.8,21.6 -52.8,56.4 l 0,540 c 0,34.8 20.4,56.4 52.8,56.4 32.4,0 52.8,-21.6 52.8,-56.4 l 0,-540 m -117.6,-207.6 c 0,35.99996 28.8,64.8 64.8,64.8 36,0 64.8,-28.80004 64.8,-64.8 0,-35.99996 -28.8,-64.8 -64.8,-64.8 -36,0 -64.8,28.80004 -64.8,64.8"
       id="path3068"
       style="font-size:1200px;font-weight:normal;fill:#787899;font-family:VAG Rounded Std Thin" />
    <path
       d="m 10863.35,1650.8 c 0,34.8 20.4,56.4 52.8,56.4 32.4,0 52.8,-21.6 52.8,-56.4 l 0,-348 c 0,-111.5999 78,-157.2 147.6,-157.2 69.6,0 147.6,45.6001 147.6,157.2 l 0,348 c 0,34.8 20.4,56.4 52.8,56.4 32.4,0 52.8,-21.6 52.8,-56.4 l 0,-354 c 0,-179.9998 -123.6,-242.4 -222,-242.4 -63.6,0 -129.6,24.0001 -176.4,84 l -2.4,-2.4 0,-25.2 c 0,-34.8 -20.4,-56.4 -52.8,-56.4 -32.4,0 -52.8,21.6 -52.8,56.4 l 0,540"
       id="path3070"
       style="font-size:1200px;font-weight:normal;fill:#787899;font-family:VAG Rounded Std Thin" />
    <path
       d="m 12028.737,1106 c 0,-37.2 -28.8,-51.6 -49.199,-51.6 -28.8,0 -56.4,14.4 -56.4,51.6 l 0,28.8 -2.401,0 c -27.599,-38.4 -93.6,-80.4 -162,-80.4 -179.999,0 -280.799,157.2002 -280.799,326.4 0,169.1998 100.8,326.4 280.799,326.4 72,0 129.601,-36.0001 162,-91.2 l 2.401,0 0,55.2 c 0,91.1999 -39.601,196.8 -174,196.8 -114,0 -160.801,-74.4 -208.801,-74.4 -33.599,0 -44.399,27.6 -44.399,49.2 0,53.9999 135.6,116.4 244.799,116.4 172.8,0 288,-115.2002 288,-304.8 l 0,-548.4 m -445.199,274.8 c 0,-107.9999 45.6,-235.2 175.199,-235.2 129.6,0 175.201,127.2001 175.201,235.2 0,107.9999 -45.601,235.2 -175.201,235.2 -129.599,0 -175.199,-127.2001 -175.199,-235.2"
       id="path3072"
       style="font-size:1200px;font-weight:normal;fill:#787899;font-family:VAG Rounded Std Thin" />
  </g>
  <g
     id="slogan"
     style="font-size:1200px;font-weight:normal;fill:#787899;font-family:VAG Rounded Std Thin">
    <path
       d="m 17169.2,7014 396,0 55.2,153.6 c 8.4,22.8 22.8,39.6 51.6,39.6 27.6,0 50.4,-16.8 50.4,-44.4 0,-14.4 -10.8,-42 -14.4,-52.8 l -265.2,-706.8 c -13.2,-37.2 -34.8,-64.8 -75.6,-64.8 -40.8,0 -62.4,27.6 -75.6,64.8 l -265.2,706.8 c -3.6,10.8 -14.4,38.4 -14.4,52.8 0,27.6 22.8,44.4 50.4,44.4 28.8,0 43.2,-16.8 51.6,-39.6 l 55.2,-153.6 m 363.6,-91.2 -331.2,0 164.4,-462 2.4,0 164.4,462"
       id="path3135"
       style="font-size:1200px;font-weight:normal;fill:#787899;font-family:VAG Rounded Std Thin" />
    <path
       d="m 17908.794,6330 c 0,-34.8 -20.4,-56.4 -52.8,-56.4 -32.4,0 -52.8,21.6 -52.8,56.4 l 0,820.8 c 0,34.8 20.4,56.4 52.8,56.4 32.4,0 52.8,-21.6 52.8,-56.4 l 0,-820.8"
       id="path3137"
       style="font-size:1200px;font-weight:normal;fill:#787899;font-family:VAG Rounded Std Thin" />
    <path
       d="m 18032.544,6734.4 c 0,177.5998 340.8,170.4001 340.8,295.2 0,43.2 -46.8,86.4 -123.6,86.4 -115.2,0 -153.6,-78 -200.4,-78 -22.8,0 -43.2,19.2 -43.2,48 0,53.9999 105.6,121.2 240,121.2 118.8,0 232.8,-63.6001 232.8,-196.8 0,-184.7998 -340.8,-172.8001 -340.8,-284.4 0,-53.9999 51.6,-80.4 111.6,-80.4 100.8,0 118.8,64.8 164.4,64.8 32.4,0 48,-20.4 48,-43.2 0,-65.9999 -124.8,-112.8 -212.4,-112.8 -106.8,0 -217.2,62.4001 -217.2,180"
       id="path3139"
       style="font-size:1200px;font-weight:normal;fill:#787899;font-family:VAG Rounded Std Thin" />
    <path
       d="m 18900.856,6561.6 -43.2,0 c -34.8,0 -52.8,16.8 -52.8,45.6 0,28.8 18,45.6 52.8,45.6 l 43.2,0 0,498 c 0,34.8 20.4,56.4 52.8,56.4 32.4,0 52.8,-21.6 52.8,-56.4 l 0,-498 43.2,0 c 34.8,0 52.8,-16.8 52.8,-45.6 0,-28.8 -18,-45.6 -52.8,-45.6 l -43.2,0 0,-138 c 0,-34.8 -20.4,-56.4 -52.8,-56.4 -32.4,0 -52.8,21.6 -52.8,56.4 l 0,138"
       id="path3141"
       style="font-size:1200px;font-weight:normal;fill:#787899;font-family:VAG Rounded Std Thin" />
    <path
       d="m 19619.937,6921.6 c 45.6,0 58.8,-19.2 58.8,-56.4 0,-153.5998 -100.8,-310.8 -274.8,-310.8 -178.799,0 -286.8,153.6002 -286.8,326.4 0,169.1998 88.801,326.4 292.8,326.4 124.8,0 255.6,-79.2001 255.6,-130.8 0,-30 -19.2,-46.8 -38.4,-46.8 -39.599,0 -75.6,86.4 -216,86.4 -118.799,0 -188.4,-85.2001 -188.4,-194.4 l 397.2,0 m -397.2,-79.2 c 3.6,-97.1999 50.401,-201.6 181.2,-196.8 116.4,0 169.2,105.6001 169.2,196.8 l -350.4,0"
       id="path3143"
       style="font-size:1200px;font-weight:normal;fill:#787899;font-family:VAG Rounded Std Thin" />
    <path
       d="m 19751.375,6880.8 c 0,169.1998 93.6,326.4 288,326.4 109.2,0 168,-43.2 168,-82.8 0,-28.8 -16.8,-44.4 -40.8,-44.4 -33.6,0 -52.8,36 -127.2,36 -130.8,0 -182.4,-127.2001 -182.4,-235.2 0,-107.9999 51.6,-235.2 182.4,-235.2 72,0 87.6,33.6 128.4,33.6 25.2,0 43.2,-22.8 43.2,-44.4 0,-43.2 -63.6,-80.4 -171.6,-80.4 -194.4,0 -288,157.2002 -288,326.4"
       id="path3145"
       style="font-size:1200px;font-weight:normal;fill:#787899;font-family:VAG Rounded Std Thin" />
    <path
       d="m 20711.806,7150.8 c 0,34.8 20.4,56.4 52.8,56.4 32.4,0 52.8,-21.6 52.8,-56.4 l 0,-354 c 0,-179.9998 -123.6,-242.4 -222,-242.4 -63.6,0 -129.6,24.0001 -176.4,84 l -2.4,-2.4 0,-306 c 0,-34.8 -20.4,-56.4 -52.8,-56.4 -32.4,0 -52.8,21.6 -52.8,56.4 l 0,820.8 c 0,34.8 20.4,56.4 52.8,56.4 32.4,0 52.8,-21.6 52.8,-56.4 l 0,-348 c 0,-111.5999 78,-157.2 147.6,-157.2 69.6,0 147.6,45.6001 147.6,157.2 l 0,348"
       id="path3147"
       style="font-size:1200px;font-weight:normal;fill:#787899;font-family:VAG Rounded Std Thin" />
    <path
       d="m 20953.194,7150.8 c 0,34.8 20.4,56.4 52.8,56.4 32.4,0 52.8,-21.6 52.8,-56.4 l 0,-348 c 0,-111.5999 78,-157.2 147.6,-157.2 69.6,0 147.6,45.6001 147.6,157.2 l 0,348 c 0,34.8 20.4,56.4 52.8,56.4 32.4,0 52.8,-21.6 52.8,-56.4 l 0,-354 c 0,-179.9998 -123.6,-242.4 -222,-242.4 -63.6,0 -129.6,24.0001 -176.4,84 l -2.4,-2.4 0,-25.2 c 0,-34.8 -20.4,-56.4 -52.8,-56.4 -32.4,0 -52.8,21.6 -52.8,56.4 l 0,540"
       id="path3149"
       style="font-size:1200px;font-weight:normal;fill:#787899;font-family:VAG Rounded Std Thin" />
    <path
       d="m 21700.981,6610.8 c 0,-34.8 -20.4,-56.4 -52.8,-56.4 -32.4,0 -52.8,21.6 -52.8,56.4 l 0,540 c 0,34.8 20.4,56.4 52.8,56.4 32.4,0 52.8,-21.6 52.8,-56.4 l 0,-540 m -117.6,-207.6 c 0,36 28.8,64.8 64.8,64.8 36,0 64.8,-28.8 64.8,-64.8 0,-36 -28.8,-64.8 -64.8,-64.8 -36,0 -64.8,28.8 -64.8,64.8"
       id="path3151"
       style="font-size:1200px;font-weight:normal;fill:#787899;font-family:VAG Rounded Std Thin" />
    <path
       d="m 22303.531,6921.6 c 45.6,0 58.8,-19.2 58.8,-56.4 0,-153.5998 -100.8,-310.8 -274.8,-310.8 -178.8,0 -286.8,153.6002 -286.8,326.4 0,169.1998 88.8,326.4 292.8,326.4 124.8,0 255.6,-79.2001 255.6,-130.8 0,-30 -19.2,-46.8 -38.4,-46.8 -39.6,0 -75.6,86.4 -216,86.4 -118.8,0 -188.4,-85.2001 -188.4,-194.4 l 397.2,0 m -397.2,-79.2 c 3.6,-97.1999 50.4,-201.6 181.2,-196.8 116.4,0 169.2,105.6001 169.2,196.8 l -350.4,0"
       id="path3153"
       style="font-size:1200px;font-weight:normal;fill:#787899;font-family:VAG Rounded Std Thin" />
    <path
       d="m 22462.569,7150.8 c 0,34.8 20.4,56.4 52.8,56.4 32.4,0 52.8,-21.6 52.8,-56.4 l 0,-254.4 266.4,278.4 c 25.2,25.2 36,32.4 61.2,32.4 22.8,0 44.4,-18 44.4,-42 0,-20.4 -4.8,-33.6 -25.2,-54 l -278.4,-274.8 240,-189.6 c 20.4,-15.6 26.4,-30 26.4,-45.6 0,-26.4 -16.8,-46.8 -44.4,-46.8 -18,0 -38.4,13.2 -60,32.4 l -230.4,193.2 0,-450 c 0,-34.8 -20.4,-56.4 -52.8,-56.4 -32.4,0 -52.8,21.6 -52.8,56.4 l 0,820.8"
       id="path3155"
       style="font-size:1200px;font-weight:normal;fill:#787899;font-family:VAG Rounded Std Thin" />
    <path
       d="m 23260.081,7365.6 c 0,57.5999 36,96 86.4,96 50.4,0 86.4,-38.4001 86.4,-96 l 0,-715.2 c 0,-57.5999 -36,-96 -86.4,-96 -50.4,0 -86.4,38.4001 -86.4,96 l 0,715.2 m 86.4,-1070.4 c -51.6,0 -97.2,45.6 -97.2,94.8 0,52.7999 45.6,99.6 97.2,99.6 54,0 97.2,-45.6001 97.2,-99.6 0,-50.3999 -45.6,-94.8 -97.2,-94.8"
       id="path3157"
       style="font-weight:bold" />
    <path
       d="m 23814.069,6547.2 c -182.4,0 -309.6,159.6002 -309.6,334.8 0,179.9998 123.6,332.4 309.6,332.4 186,0 309.6,-152.4002 309.6,-332.4 0,-175.1998 -127.2,-334.8 -309.6,-334.8 m 0,158.4 c 94.8,0 136.8,93.6001 136.8,176.4 0,82.7999 -43.2,174 -136.8,174 -93.6,0 -136.8,-91.2001 -136.8,-174 0,-82.7999 42,-176.4 136.8,-176.4"
       id="path3159"
       style="font-weight:bold" />
    <path
       d="m 24197.637,6962.4 c 0,153.5998 102.001,252 284.4,252 182.4,0 284.4,-98.4002 284.4,-252 l 0,-312 c 0,-57.5999 -36,-96 -86.4,-96 -50.399,0 -86.4,38.4001 -86.4,96 l 0,308.4 c 0,71.9999 -54,111.6 -111.6,111.6 -57.599,0 -111.6,-39.6001 -111.6,-111.6 l 0,-308.4 c 0,-57.5999 -36,-96 -86.4,-96 -50.399,0 -86.4,38.4001 -86.4,96 l 0,312"
       id="path3161"
       style="font-weight:bold" />
    <path
       d="m 24989.206,7119.6 c 18,50.3999 48,87.6 104.4,87.6 52.8,0 84,-30.0001 99.6,-80.4 l 88.8,-278.4 2.4,0 88.8,278.4 c 15.6,50.3999 46.8,80.4 99.6,80.4 56.4,0 86.4,-37.2001 104.4,-87.6 l 147.6,-416.4 c 8.4,-26.4 16.8,-45.6 16.8,-64.8 0,-52.7999 -36,-84 -86.4,-84 -42,0 -72,27.6 -81.6,68.4 l -99.6,330 -2.4,0 -100.8,-322.8 c -13.2,-46.8 -37.2,-75.6 -87.6,-75.6 -50.4,0 -74.4,28.8 -87.6,75.6 l -100.8,322.8 -2.4,0 -99.6,-330 c -9.6,-40.8 -39.6,-68.4 -81.6,-68.4 -50.4,0 -86.4,31.2 -86.4,69.6 0,25.2 6,46.8 18,81.6 l 146.4,414"
       id="path3163"
       style="font-weight:bold" />
    <path
       d="m 26507.9,7150.8 c 0,34.8 20.4,56.4 52.8,56.4 32.4,0 52.8,-21.6 52.8,-56.4 l 0,-354 c 0,-179.9998 -123.6,-242.4 -222,-242.4 -63.6,0 -129.6,24.0001 -176.4,84 l -2.4,-2.4 0,-306 c 0,-34.8 -20.4,-56.4 -52.8,-56.4 -32.4,0 -52.8,21.6 -52.8,56.4 l 0,820.8 c 0,34.8 20.4,56.4 52.8,56.4 32.4,0 52.8,-21.6 52.8,-56.4 l 0,-348 c 0,-111.5999 78,-157.2 147.6,-157.2 69.6,0 147.6,45.6001 147.6,157.2 l 0,348"
       id="path3165"
       style="font-size:1200px;font-weight:normal;fill:#787899;font-family:VAG Rounded Std Thin" />
    <path
       d="m 26721.687,6880.8 c 0,169.1998 100.801,326.4 280.8,326.4 180,0 280.8,-157.2002 280.8,-326.4 0,-169.1998 -100.8,-326.4 -280.8,-326.4 -179.999,0 -280.8,157.2002 -280.8,326.4 m 105.6,0 c 0,-107.9999 45.601,-235.2 175.2,-235.2 129.6,0 175.2,127.2001 175.2,235.2 0,107.9999 -45.6,235.2 -175.2,235.2 -129.599,0 -175.2,-127.2001 -175.2,-235.2"
       id="path3167"
       style="font-size:1200px;font-weight:normal;fill:#787899;font-family:VAG Rounded Std Thin" />
    <path
       d="m 27491.075,6880.8 c 0,-107.9999 45.6,-235.2 175.2,-235.2 129.6,0 175.2,127.2001 175.2,235.2 0,107.9999 -45.6,235.2 -175.2,235.2 -129.6,0 -175.2,-127.2001 -175.2,-235.2 m -94.8,270 c 0,34.8 20.4,56.4 52.8,56.4 32.4,0 52.8,-21.6 52.8,-56.4 l 0,-31.2 2.4,0 c 30,57.5999 86.4,87.6 170.4,87.6 172.8,0 272.4,-157.2002 272.4,-326.4 0,-169.1998 -99.6,-326.4 -272.4,-326.4 -84,0 -142.8,46.8 -170.4,86.4 l -2.4,0 0,-310.8 c 0,-34.8 -20.4,-56.4 -52.8,-56.4 -32.4,0 -52.8,21.6 -52.8,56.4 l 0,820.8"
       id="path3169"
       style="font-size:1200px;font-weight:normal;fill:#787899;font-family:VAG Rounded Std Thin" />
    <path
       d="m 28159.044,6880.8 c 0,-107.9999 45.6,-235.2 175.2,-235.2 129.6,0 175.2,127.2001 175.2,235.2 0,107.9999 -45.6,235.2 -175.2,235.2 -129.6,0 -175.2,-127.2001 -175.2,-235.2 m -94.8,270 c 0,34.8 20.4,56.4 52.8,56.4 32.4,0 52.8,-21.6 52.8,-56.4 l 0,-31.2 2.4,0 c 30,57.5999 86.4,87.6 170.4,87.6 172.8,0 272.4,-157.2002 272.4,-326.4 0,-169.1998 -99.6,-326.4 -272.4,-326.4 -84,0 -142.8,46.8 -170.4,86.4 l -2.4,0 0,-310.8 c 0,-34.8 -20.4,-56.4 -52.8,-56.4 -32.4,0 -52.8,21.6 -52.8,56.4 l 0,820.8"
       id="path3171"
       style="font-size:1200px;font-weight:normal;fill:#787899;font-family:VAG Rounded Std Thin" />
    <path
       d="m 28872.612,7177.2 -67.2,178.8 c -13.199,36 -15.6,46.8 -15.6,58.8 0,26.4 24.001,44.4 48,44.4 26.4,0 43.201,-16.8 51.6,-39.6 l 266.4,-762 c 12,-36 14.4,-46.8 14.4,-58.8 0,-26.4 -24,-44.4 -48,-44.4 -26.399,0 -43.2,16.8 -50.4,39.6 l -144,438 -2.4,0 -146.4,-438 c -7.199,-22.8 -26.4,-39.6 -52.8,-39.6 -23.999,0 -48,18 -48,44.4 0,12 2.401,22.8 14.4,58.8 l 180,519.6"
       id="path3173"
       style="font-size:1200px;font-weight:normal;fill:#787899;font-family:VAG Rounded Std Thin" />
    <path
       d="m 29632.231,6610.8 c 0,-34.8 -20.4,-56.4 -52.8,-56.4 -32.4,0 -52.8,21.6 -52.8,56.4 l 0,540 c 0,34.8 20.4,56.4 52.8,56.4 32.4,0 52.8,-21.6 52.8,-56.4 l 0,-540 m -117.6,-207.6 c 0,36 28.8,64.8 64.8,64.8 36,0 64.8,-28.8 64.8,-64.8 0,-36 -28.8,-64.8 -64.8,-64.8 -36,0 -64.8,28.8 -64.8,64.8"
       id="path3175"
       style="font-size:1200px;font-weight:normal;fill:#787899;font-family:VAG Rounded Std Thin" />
    <path
       d="m 29755.981,6734.4 c 0,177.5998 340.8,170.4001 340.8,295.2 0,43.2 -46.8,86.4 -123.6,86.4 -115.2,0 -153.6,-78 -200.4,-78 -22.8,0 -43.2,19.2 -43.2,48 0,53.9999 105.6,121.2 240,121.2 118.8,0 232.8,-63.6001 232.8,-196.8 0,-184.7998 -340.8,-172.8001 -340.8,-284.4 0,-53.9999 51.6,-80.4 111.6,-80.4 100.8,0 118.8,64.8 164.4,64.8 32.4,0 48,-20.4 48,-43.2 0,-65.9999 -124.8,-112.8 -212.4,-112.8 -106.8,0 -217.2,62.4001 -217.2,180"
       id="path3177"
       style="font-size:1200px;font-weight:normal;fill:#787899;font-family:VAG Rounded Std Thin" />
    <path
       d="m 30357.612,6914.4 c 0,34.8 20.401,56.4 52.8,56.4 32.4,0 52.8,-21.6 52.8,-56.4 l 0,-519.6 c 0,-34.8 -20.4,-56.4 -52.8,-56.4 -32.399,0 -52.8,21.6 -52.8,56.4 l 0,519.6 m -8.4,231.6 c 0,33.6 27.601,61.2 61.2,61.2 33.6,0 61.2,-27.6 61.2,-61.2 0,-33.6 -27.6,-61.2 -61.2,-61.2 -33.599,0 -61.2,27.6 -61.2,61.2"
       id="path3179"
       style="font-size:1200px;font-weight:normal;fill:#787899;font-family:VAG Rounded Std Thin" />
  </g>
  <g
     id="title-main"
     style="font-size:1800px;font-weight:600;fill:#202088;font-family:VAG Rounded Std Thin">
    <path
       d="m 8089.1005,3651.4992 c 0,112.8605 91.0806,148.5008 156.4209,148.5008 l 344.5219,0 c 407.8818,0 677.1637,-269.2819 677.1637,-685.0838 0,-439.562 -253.4418,-724.684 -696.9638,-724.684 l -328.6819,0 c -89.1004,0 -152.4608,61.3804 -152.4608,152.4608 l 0,1108.8062 m 297.0016,-988.0255 180.181,0 c 273.2413,0 392.0422,184.1413 392.0422,437.5824 0,237.6011 -116.8209,425.7024 -372.242,425.7024 l -199.9812,0 0,-863.2848"
       id="path3075"
       style="font-size:110.00213623%" />
    <path
       d="m 9403.5854,3665 c 0,80.9999 59.4001,135 138.6,135 l 464.3996,0 c 84.6,0 127.8,-63.0001 127.8,-124.2 0,-62.9999 -41.4,-124.2 -127.8,-124.2 l -332.9996,0 0,-273.6 295.2,0 c 86.3996,0 131.3996,-63.0001 131.3996,-124.2 0,-62.9999 -43.2,-124.2 -131.3996,-124.2 l -295.2,0 0,-262.8 316.8,0 c 84.5996,0 127.7996,-63.0001 127.7996,-124.2 0,-62.9999 -41.4,-124.2 -127.7996,-124.2 l -446.4,0 c -95.3999,0 -140.4,66.6001 -140.4,156.6 l 0,990"
       id="path3077"
       style="font-size:1800px;font-weight:600;fill:#202088;font-family:VAG Rounded Std Thin" />
    <path
       d="m 11366.073,2532.793 c 0,-99.0005 -63.36,-154.4409 -148.501,-154.4409 -85.14,0 -148.5,55.4404 -148.5,154.4409 l 0,851.4047 c 0,63.3603 0,166.3209 -110.881,166.3209 -89.1,0 -158.401,-73.2604 -237.601,-73.2604 -65.341,0 -110.881,67.3204 -110.881,120.7807 0,172.2608 227.701,225.7212 364.322,225.7212 180.181,0 392.042,-87.1208 392.042,-419.7623 l 0,-871.2048"
       id="path3079"
       style="font-size:110.00213623%" />
    <path
       d="m 12091.609,3573.2 c -228.6,0 -338.4,-194.4002 -338.4,-414 0,-217.7998 113.4,-414 338.4,-414 224.999,0 338.4,196.2002 338.4,414 0,219.5998 -109.801,414 -338.4,414 m 0,248.4 c 368.999,0 619.2,-289.8004 619.2,-662.4 0,-365.3996 -257.401,-662.4 -619.2,-662.4 -367.2,0 -619.2,288.0004 -619.2,662.4 0,372.5996 253.8,662.4 619.2,662.4"
       id="path3081"
       style="font-size:1800px;font-weight:600;fill:#202088;font-family:VAG Rounded Std Thin" />
    <path
       d="m 12812.79,3670.4 c 0,89.9999 57.6,140.4 135,140.4 77.4,0 135,-50.4001 135,-140.4 l 0,-671.4 3.6,0 570.6,752.4 c 25.2,32.4 79.2,59.4 113.4,59.4 77.4,0 135,-50.4001 135,-140.4 l 0,-1022.4 c 0,-89.9999 -57.6,-140.4 -135,-140.4 -77.4,0 -135,50.4001 -135,140.4 l 0,680.4 -3.6,0 -570.6,-761.4 c -23.4,-32.4 -79.2,-59.4 -113.4,-59.4 -77.4,0 -135,50.4001 -135,140.4 l 0,1022.4"
       id="path3083"
       style="font-size:1800px;font-weight:600;fill:#202088;font-family:VAG Rounded Std Thin" />
    <path
       d="m 14748.774,3040.4 c -68.4,0 -126,46.8001 -126,122.4 0,73.7999 52.2,126 126,126 l 183.6,0 c 0,205.1998 -163.8,284.4 -306,284.4 -228.6,0 -338.4,-194.4002 -338.4,-414 0,-217.7998 113.4,-414 338.4,-414 235.8,0 261,131.4 383.4,131.4 63,0 111.6,-48.6001 111.6,-126 0,-125.9999 -223.2,-253.8 -495,-253.8 -367.199,0 -619.2,288.0004 -619.2,662.4 0,372.5996 253.801,662.4 619.2,662.4 360,0 586.8,-261.0003 586.8,-608.4 0,-115.1999 -45,-172.8 -158.4,-172.8 l -306,0"
       id="path3085"
       style="font-size:1800px;font-weight:600;fill:#202088;font-family:VAG Rounded Std Thin" />
    <path
       d="m 15323.199,3665 c 0,80.9999 59.4,135 138.6,135 l 464.4,0 c 84.6,0 127.8,-63.0001 127.8,-124.2 0,-62.9999 -41.4,-124.2 -127.8,-124.2 l -333,0 0,-273.6 295.2,0 c 86.4,0 131.4,-63.0001 131.4,-124.2 0,-62.9999 -43.2,-124.2 -131.4,-124.2 l -295.2,0 0,-262.8 316.8,0 c 84.6,0 127.8,-63.0001 127.8,-124.2 0,-62.9999 -41.4,-124.2 -127.8,-124.2 l -446.4,0 c -95.4,0 -140.4,66.6001 -140.4,156.6 l 0,990"
       id="path3087"
       style="font-size:1800px;font-weight:600;fill:#202088;font-family:VAG Rounded Std Thin" />
    <path
       d="m 17271.827,3550.5186 c -251.461,0 -372.242,-213.8414 -372.242,-455.4025 0,-239.5811 124.741,-455.4025 372.242,-455.4025 247.501,0 372.242,215.8214 372.242,455.4025 0,241.5611 -120.781,455.4025 -372.242,455.4025 m 0,273.2415 c 405.902,0 681.124,-318.7821 681.124,-728.644 0,-401.9418 -283.142,-728.6441 -681.124,-728.6441 -403.922,0 -681.124,316.8022 -681.124,728.6441 0,409.8619 279.182,728.644 681.124,728.644"
       id="path3089"
       style="font-size:110.00213623%" />
    <path
       d="m 18058.11,3670.4 c 0,89.9999 57.6,140.4 135,140.4 77.4,0 135,-50.4001 135,-140.4 l 0,-671.4 3.6,0 570.6,752.4 c 25.2,32.4 79.2,59.4 113.4,59.4 77.4,0 135,-50.4001 135,-140.4 l 0,-1022.4 c 0,-89.9999 -57.6,-140.4 -135,-140.4 -77.4,0 -135,50.4001 -135,140.4 l 0,680.4 -3.6,0 -570.6,-761.4 c -23.4,-32.4 -79.2,-59.4 -113.4,-59.4 -77.4,0 -135,50.4001 -135,140.4 l 0,1022.4"
       id="path3091"
       style="font-size:1800px;font-weight:600;fill:#202088;font-family:VAG Rounded Std Thin" />
    <path
       d="m 19302.895,3665 c 0,102.5999 82.8,135 142.2,135 l 313.2,0 c 370.799,0 615.6,-244.8004 615.6,-622.8 0,-399.5996 -230.401,-658.8 -633.6,-658.8 l -298.8,0 c -81,0 -138.6,55.8001 -138.6,138.6 l 0,1008 m 270,-898.2 163.8,0 c 248.399,0 356.4,167.4002 356.4,397.8 0,215.9998 -106.201,387 -338.4,387 l -181.8,0 0,-784.8"
       id="path3093"
       style="font-size:1800px;font-weight:600;fill:#202088;font-family:VAG Rounded Std Thin" />
    <path
       d="m 20505.238,3665 c 0,80.9999 59.4,135 138.6,135 l 464.4,0 c 84.6,0 127.8,-63.0001 127.8,-124.2 0,-62.9999 -41.4,-124.2 -127.8,-124.2 l -333,0 0,-273.6 295.2,0 c 86.4,0 131.4,-63.0001 131.4,-124.2 0,-62.9999 -43.2,-124.2 -131.4,-124.2 l -295.2,0 0,-262.8 316.8,0 c 84.6,0 127.8,-63.0001 127.8,-124.2 0,-62.9999 -41.4,-124.2 -127.8,-124.2 l -446.4,0 c -95.4,0 -140.4,66.6001 -140.4,156.6 l 0,990"
       id="path3095"
       style="font-size:1800px;font-weight:600;fill:#202088;font-family:VAG Rounded Std Thin" />
    <path
       d="m 21338.441,3670.4 c 0,89.9999 57.6,140.4 135,140.4 77.4,0 135,-50.4001 135,-140.4 l 0,-390.6 3.6,0 399.6,484.2 c 28.8,34.2 72,46.8 104.4,46.8 79.2,0 135,-68.4001 135,-138.6 0,-25.2 -10.8,-52.2 -36,-79.2 l -306,-327.6 c 183.6,-28.8 333,-142.2002 333,-340.2 0,-282.5997 -171,-406.8 -448.2,-406.8 l -316.8,0 c -90,0 -138.6,54.0001 -138.6,140.4 l 0,1011.6 m 270,-903.6 185.4,0 c 99,0 167.4,55.8001 167.4,158.4 0,100.7999 -68.4,160.2 -167.4,160.2 l -185.4,0 0,-318.6"
       id="path3097"
       style="font-size:1800px;font-weight:600;fill:#202088;font-family:VAG Rounded Std Thin" />
    <path
       d="m 22635.595,3562.4 576,-799.2 c 23.4,-30.6 39.6,-75.6 39.6,-115.2 0,-62.9999 -46.801,-129.6 -151.2,-129.6 l -658.8,0 c -68.4,0 -126,54.0001 -126,122.4 0,73.7999 54,115.2 126,115.2 l 473.4,0 -579.6,810 c -23.4,32.4 -36,68.4 -36,104.4 0,75.5999 55.8,129.6 151.2,129.6 l 707.4,0 c 64.799,0 129.6,-50.4001 129.6,-118.8 0,-77.3999 -54.001,-118.8 -129.6,-118.8 l -522,0"
       id="path3099"
       style="font-size:1800px;font-weight:600;fill:#202088;font-family:VAG Rounded Std Thin" />
    <path
       d="m 23977.945,3573.2 c -228.6,0 -338.4,-194.4002 -338.4,-414 0,-217.7998 113.4,-414 338.4,-414 224.999,0 338.4,196.2002 338.4,414 0,219.5998 -109.801,414 -338.4,414 m 0,248.4 c 368.999,0 619.2,-289.8004 619.2,-662.4 0,-365.3996 -257.401,-662.4 -619.2,-662.4 -367.2,0 -619.2,288.0004 -619.2,662.4 0,372.5996 253.8,662.4 619.2,662.4"
       id="path3101"
       style="font-size:1800px;font-weight:600;fill:#202088;font-family:VAG Rounded Std Thin" />
    <path
       d="m 24709.926,3665 c 0,80.9999 59.4,135 138.6,135 l 464.4,0 c 84.6,0 127.8,-63.0001 127.8,-124.2 0,-62.9999 -41.4,-124.2 -127.8,-124.2 l -333,0 0,-273.6 295.2,0 c 86.4,0 131.4,-63.0001 131.4,-124.2 0,-62.9999 -43.2,-124.2 -131.4,-124.2 l -295.2,0 0,-262.8 316.8,0 c 84.6,0 127.8,-63.0001 127.8,-124.2 0,-62.9999 -41.4,-124.2 -127.8,-124.2 l -446.4,0 c -95.4,0 -140.4,66.6001 -140.4,156.6 l 0,990"
       id="path3103"
       style="font-size:1800px;font-weight:600;fill:#202088;font-family:VAG Rounded Std Thin" />
    <path
       d="m 25543.129,3681.2 c 0,79.1999 57.6,129.6 135,129.6 81,0 135,-59.4001 135,-129.6 l 0,-459 466.2,504 c 50.4,53.9999 84.6,84.6 136.8,84.6 73.8,0 140.4,-39.6001 140.4,-124.2 0,-53.9999 -32.4,-93.6 -75.6,-136.8 l -415.8,-433.8 340.2,-334.8 c 59.4,-59.3999 88.2,-97.2 88.2,-144 0,-77.3999 -64.8,-129.6 -133.2,-129.6 -50.4,0 -84.6,28.8 -104.4,50.4 l -442.8,471.6 0,-388.8 c 0,-82.7999 -57.6,-133.2 -135,-133.2 -81,0 -135,59.4001 -135,133.2 l 0,1040.4"
       id="path3105"
       style="font-size:1800px;font-weight:600;fill:#202088;font-family:VAG Rounded Std Thin" />
    <path
       d="m 26643.52,3665 c 0,80.9999 59.4,135 138.6,135 l 464.4,0 c 84.599,0 127.8,-63.0001 127.8,-124.2 0,-62.9999 -41.401,-124.2 -127.8,-124.2 l -333,0 0,-273.6 295.2,0 c 86.399,0 131.4,-63.0001 131.4,-124.2 0,-62.9999 -43.201,-124.2 -131.4,-124.2 l -295.2,0 0,-262.8 316.8,0 c 84.599,0 127.8,-63.0001 127.8,-124.2 0,-62.9999 -41.401,-124.2 -127.8,-124.2 l -446.4,0 c -95.4,0 -140.4,66.6001 -140.4,156.6 l 0,990"
       id="path3107"
       style="font-size:1800px;font-weight:600;fill:#202088;font-family:VAG Rounded Std Thin" />
    <path
       d="m 27476.723,3670.4 c 0,89.9999 57.6,140.4 135,140.4 77.4,0 135,-50.4001 135,-140.4 l 0,-390.6 3.6,0 399.6,484.2 c 28.8,34.2 72,46.8 104.4,46.8 79.2,0 135,-68.4001 135,-138.6 0,-25.2 -10.8,-52.2 -36,-79.2 l -306,-327.6 c 183.599,-28.8 333,-142.2002 333,-340.2 0,-282.5997 -171.001,-406.8 -448.2,-406.8 l -316.8,0 c -90,0 -138.6,54.0001 -138.6,140.4 l 0,1011.6 m 270,-903.6 185.4,0 c 99,0 167.4,55.8001 167.4,158.4 0,100.7999 -68.4,160.2 -167.4,160.2 l -185.4,0 0,-318.6"
       id="path3109"
       style="font-size:1800px;font-weight:600;fill:#202088;font-family:VAG Rounded Std Thin" />
    <path
       d="m 28883.676,2496.8 c -239.4,0 -446.4,156.6003 -446.4,408.6 0,417.5996 601.2,289.8002 601.2,502.2 0,88.1999 -64.8,154.8 -183.6,154.8 -117,0 -217.8,-70.2 -302.4,-70.2 -73.8,0 -120.6,57.6001 -120.6,127.8 0,169.1998 298.8,201.6 437.4,201.6 248.4,0 460.8,-160.2003 460.8,-417.6 0,-464.3995 -601.2,-345.6002 -601.2,-531 0,-75.5999 70.2,-117 147.6,-117 108,0 165.6,54 239.4,54 73.8,0 120.6,-63.0001 120.6,-133.2 0,-142.1999 -252,-180 -352.8,-180"
       id="path3111"
       style="font-size:1800px;font-weight:600;fill:#202088;font-family:VAG Rounded Std Thin" />
  </g>
  <g
     id="title-sub"
     style="font-size:1800px;font-weight:600;fill:#202088;font-family:VAG Rounded Std Thin">
    <path
       d="m 8017.8201,5407.9389 c -3.96,9.9001 -13.8601,33.6603 -13.8601,65.3404 0,79.2004 67.3205,138.6008 146.5208,138.6008 81.1804,0 122.7607,-43.5603 142.5608,-104.9406 l 59.4004,-184.141 550.443,0 59.4003,186.121 c 19.8001,59.4003 61.3805,102.9606 144.5408,102.9606 73.2604,0 136.6208,-53.4604 136.6208,-130.6808 0,-13.86 -3.96,-41.5802 -15.8401,-73.2604 L 8839.5247,4330.813 c -33.6602,-95.0405 -106.9207,-164.341 -211.8612,-164.341 -100.9805,0 -178.201,73.2605 -211.8612,164.341 l -397.9822,1077.1259 m 607.8634,-932.5851 3.96,0 184.141,574.2031 -376.2021,0 188.1011,-574.2031"
       id="path3114"
       style="font-size:110.00213623%" />
    <path
       d="m 9294.1085,5450.6 c -1.8,10.8 -1.8,21.6 -1.8,30.6 0,79.1999 57.6001,129.6 129.6,129.6 91.7999,0 127.8,-41.4001 140.4,-126 l 106.2,-732.6 3.6,0 216,754.2 c 12.6,43.2 46.8001,104.4 144.0005,104.4 97.199,0 131.4,-61.2 144,-104.4 l 216,-754.2 3.6,0 106.2,732.6 c 12.6,84.5999 48.6,126 140.4,126 71.999,0 129.6,-50.4001 129.6,-129.6 0,-9 0,-19.8 -1.8,-30.6 l -167.4,-1004.4 c -10.8,-64.7999 -81.001,-138.6 -176.4,-138.6 -90,0 -160.2,64.8001 -180,129.6 l -212.4,712.8 -3.6,0 -212.4005,-712.8 c -19.8,-64.7999 -90.0001,-129.6 -180,-129.6 -95.3999,0 -165.6,73.8001 -176.4,138.6 l -167.4,1004.4"
       id="path3116"
       style="font-size:1800px;font-weight:600;fill:#202088;font-family:VAG Rounded Std Thin" />
    <path
       d="m 10894.562,5465 c 0,80.9999 59.4,135 138.6,135 l 464.4,0 c 84.599,0 127.8,-63.0001 127.8,-124.2 0,-62.9999 -41.401,-124.2 -127.8,-124.2 l -333,0 0,-273.6 295.2,0 c 86.399,0 131.4,-63.0001 131.4,-124.2 0,-62.9999 -43.201,-124.2 -131.4,-124.2 l -295.2,0 0,-262.8 316.8,0 c 84.599,0 127.8,-63.0001 127.8,-124.2 0,-62.9999 -41.401,-124.2 -127.8,-124.2 l -446.4,0 c -95.4,0 -140.4,66.6001 -140.4,156.6 l 0,990"
       id="path3118"
       style="font-size:1800px;font-weight:600;fill:#202088;font-family:VAG Rounded Std Thin" />
    <path
       d="m 11727.765,5470.4 c 0,89.9999 57.6,140.4 135,140.4 77.4,0 135,-50.4001 135,-140.4 l 0,-390.6 3.6,0 399.6,484.2 c 28.8,34.2 72,46.8 104.4,46.8 79.2,0 135,-68.4001 135,-138.6 0,-25.2 -10.8,-52.2 -36,-79.2 l -306,-327.6 c 183.599,-28.8 333,-142.2002 333,-340.2 0,-282.5997 -171.001,-406.8 -448.2,-406.8 l -316.8,0 c -90,0 -138.6,54.0001 -138.6,140.4 l 0,1011.6 m 270,-903.6 185.4,0 c 99,0 167.4,55.8001 167.4,158.4 0,100.7999 -68.4,160.2 -167.4,160.2 l -185.4,0 0,-318.6"
       id="path3120"
       style="font-size:1800px;font-weight:600;fill:#202088;font-family:VAG Rounded Std Thin" />
    <path
       d="m 13134.718,4296.8 c -239.4,0 -446.4,156.6003 -446.4,408.6 0,417.5996 601.2,289.8002 601.2,502.2 0,88.1999 -64.8,154.8 -183.6,154.8 -117,0 -217.8,-70.2 -302.4,-70.2 -73.8,0 -120.6,57.6001 -120.6,127.8 0,169.1998 298.8,201.6 437.4,201.6 248.4,0 460.8,-160.2003 460.8,-417.6 0,-464.3995 -601.2,-345.6002 -601.2,-531 0,-75.5999 70.2,-117 147.6,-117 108,0 165.6,54 239.4,54 73.8,0 120.6,-63.0001 120.6,-133.2 0,-142.1999 -252,-180 -352.8,-180"
       id="path3122"
       style="font-size:1800px;font-weight:600;fill:#202088;font-family:VAG Rounded Std Thin" />
    <path
       d="m 13696.515,5470.4 c 0,89.9999 57.6,140.4 135,140.4 77.4,0 135,-50.4001 135,-140.4 l 0,-392.4 279,0 c 86.4,0 129.6,-63.0001 129.6,-126 0,-61.1999 -43.2,-122.4 -129.6,-122.4 l -279,0 0,-262.8 331.2,0 c 81,0 120.6,-63.0001 120.6,-124.2 0,-62.9999 -41.4,-124.2 -120.6,-124.2 l -460.8,0 c -90,0 -140.4,66.6001 -140.4,140.4 l 0,1011.6"
       id="path3124"
       style="font-size:1800px;font-weight:600;fill:#202088;font-family:VAG Rounded Std Thin" />
    <path
       d="m 15063.362,5373.2 c -228.6,0 -338.4,-194.4002 -338.4,-414 0,-217.7998 113.4,-414 338.4,-414 224.999,0 338.4,196.2002 338.4,414 0,219.5998 -109.801,414 -338.4,414 m 0,248.4 c 368.999,0 619.2,-289.8004 619.2,-662.4 0,-365.3996 -257.401,-662.4 -619.2,-662.4 -367.2,0 -619.2,288.0004 -619.2,662.4 0,372.5996 253.8,662.4 619.2,662.4"
       id="path3126"
       style="font-size:1800px;font-weight:600;fill:#202088;font-family:VAG Rounded Std Thin" />
    <path
       d="m 16364.143,5373.2 c -228.6,0 -338.4,-194.4002 -338.4,-414 0,-217.7998 113.4,-414 338.4,-414 225,0 338.4,196.2002 338.4,414 0,219.5998 -109.8,414 -338.4,414 m 0,248.4 c 368.999,0 619.2,-289.8004 619.2,-662.4 0,-365.3996 -257.401,-662.4 -619.2,-662.4 -367.2,0 -619.2,288.0004 -619.2,662.4 0,372.5996 253.8,662.4 619.2,662.4"
       id="path3128"
       style="font-size:1800px;font-weight:600;fill:#202088;font-family:VAG Rounded Std Thin" />
    <path
       d="m 17096.124,5470.4 c 0,89.9999 57.6,140.4 135,140.4 77.4,0 135,-50.4001 135,-140.4 l 0,-390.6 3.6,0 399.6,484.2 c 28.8,34.2 72,46.8 104.4,46.8 79.2,0 135,-68.4001 135,-138.6 0,-25.2 -10.8,-52.2 -36,-79.2 l -306,-327.6 c 183.6,-28.8 333,-142.2002 333,-340.2 0,-282.5997 -171,-406.8 -448.2,-406.8 l -316.8,0 c -90,0 -138.6,54.0001 -138.6,140.4 l 0,1011.6 m 270,-903.6 185.4,0 c 99,0 167.4,55.8001 167.4,158.4 0,100.7999 -68.4,160.2 -167.4,160.2 l -185.4,0 0,-318.6"
       id="path3130"
       style="font-size:1800px;font-weight:600;fill:#202088;font-family:VAG Rounded Std Thin" />
    <path
       d="m 18282.437,5470.4 c 0,89.9999 57.6,140.4 135,140.4 77.399,0 135,-50.4001 135,-140.4 l 0,-903.6 196.2,0 c 86.399,0 122.4,-63.0001 122.4,-124.2 0,-62.9999 -45.001,-124.2 -122.4,-124.2 l -662.4,0 c -77.4,0 -122.4,61.2001 -122.4,124.2 0,61.1999 36,124.2 122.4,124.2 l 196.2,0 0,903.6"
       id="path3132"
       style="font-size:1800px;font-weight:600;fill:#202088;font-family:VAG Rounded Std Thin" />
  </g>
</svg>
