<?xml version="1.0" encoding="UTF-8" standalone="no"?>
<!-- Created with Inkscape (http://www.inkscape.org/) -->

<svg
   xmlns:dc="http://purl.org/dc/elements/1.1/"
   xmlns:cc="http://creativecommons.org/ns#"
   xmlns:rdf="http://www.w3.org/1999/02/22-rdf-syntax-ns#"
   xmlns:svg="http://www.w3.org/2000/svg"
   xmlns="http://www.w3.org/2000/svg"
   version="1.1"
   width="190"
   height="30"
   viewBox="2600 0 5688.2476 1086.5556"
   id="svg3004">
  <metadata
     id="metadata3034">
    <rdf:RDF>
      <cc:Work
         rdf:about="">
        <dc:format>image/svg+xml</dc:format>
        <dc:type
           rdf:resource="http://purl.org/dc/dcmitype/StillImage" />
        <dc:title>Ontwerp DJO logo</dc:title>
      </cc:Work>
    </rdf:RDF>
  </metadata>
  <defs
     id="defs3032" />
  <path
     d="m 2562.1858,0 c -60.8651,0 -121.5425,10.01633 -179.1786,29.57573 -57.6361,19.55947 -111.8783,48.5434 -160.1685,85.58914 -48.2903,37.04573 -90.3334,81.92547 -124.1512,132.5284 -33.8178,50.60287 -59.2016,106.6178 -74.9563,165.40754 -15.7546,58.78972 -21.7829,119.99142 -17.8022,180.72702 3.9807,60.7358 17.9478,120.6322 41.2409,176.8663 23.2931,56.2341 55.7689,108.4596 95.9019,154.2225 40.133,45.7629 87.6763,84.77727 140.3895,115.21127 l 1.6104,0.9291 1.6568,0.831 c 45.3552,22.6776 87.1913,37.8119 128.4146,42.9649 41.2234,5.1529 83.9155,-1.0083 118.8606,-23.7226 69.8902,-45.4286 90.1209,-132.10677 90.1209,-239.81157 l 0,-495.51032 a 61.944992,61.944992 0 1 0 -123.8776,0 l 0,495.51032 c 0,90.4996 -21.0618,127.6989 -33.7566,135.9506 -6.3475,4.1258 -15.271,7.2554 -35.9865,4.666 -20.3926,-2.549 -50.2122,-11.9492 -86.6523,-29.999 -40.2937,-23.4898 -76.8949,-53.6332 -107.6445,-88.6964 -31.1446,-35.5136 -56.5136,-76.3152 -74.5898,-119.9548 -18.0762,-43.6396 -28.9848,-90.4289 -32.074,-137.5609 -3.089,-47.132 1.618,-94.9395 13.8434,-140.55976 12.2254,-45.62026 32.0579,-89.3748 58.2998,-128.64173 26.242,-39.267 59.0836,-74.32327 96.5575,-103.07134 37.4739,-28.74806 79.845,-51.38926 124.5744,-66.56873 44.7294,-15.1794 92.1305,-23.00507 139.3674,-23.00507 47.237,0 94.6381,7.82567 139.3675,23.00507 44.7294,15.17947 87.1005,37.82067 124.5744,66.56873 37.4739,28.74807 70.3155,63.80434 96.5574,103.07134 26.242,39.26693 46.0745,83.02147 58.3,128.64173 12.2254,45.62026 16.9324,93.42776 13.8432,140.55976 -3.089,47.132 -13.9977,93.9213 -32.0739,137.5609 -18.0763,43.6396 -43.4452,84.4412 -74.5898,119.9548 -31.1447,35.5137 -68.2857,65.9922 -109.1929,89.61 a 61.944992,61.944992 0 1 0 61.9388,107.27797 c 52.7131,-30.434 100.2564,-69.44837 140.3894,-115.21127 40.133,-45.7629 72.6088,-97.9884 95.9019,-154.2225 23.2931,-56.2341 37.2602,-116.1305 41.2409,-176.8663 3.9807,-60.7356 -2.0476,-121.9373 -17.8022,-180.72702 -15.7546,-58.78974 -41.1386,-114.80467 -74.9563,-165.40754 -33.8177,-50.60293 -75.8609,-95.48267 -124.1511,-132.5284 C 2853.2429,78.11913 2799.0005,49.1352 2741.3645,29.57573 2683.7285,10.01633 2623.051,0 2562.1858,0 z"
     id="badge"
     style="font-size:medium;font-style:normal;font-variant:normal;font-weight:normal;font-stretch:normal;text-indent:0;text-align:start;text-decoration:none;line-height:normal;letter-spacing:normal;word-spacing:normal;text-transform:none;direction:ltr;block-progression:tb;writing-mode:lr-tb;text-anchor:start;baseline-shift:baseline;color:#000000;fill:#202088;fill-opacity:1;stroke:none;stroke-width:750;marker:none;visibility:visible;display:inline;overflow:visible;enable-background:accumulate;font-family:Sans;-inkscape-font-specification:Sans" />
  <g
     transform="matrix(0.26462721,0,0,0.26462721,1121.9719,-500.86909)"
     id="title-main"
     style="font-size:1800px;font-weight:600;fill:#202088;font-family:VAG Rounded Std Thin">
    <path
       d="m 8089.1005,3651.4992 c 0,112.8605 91.0806,148.5008 156.4209,148.5008 l 344.5219,0 c 407.8818,0 677.1637,-269.2819 677.1637,-685.0838 0,-439.562 -253.4418,-724.684 -696.9638,-724.684 l -328.6819,0 c -89.1004,0 -152.4608,61.3804 -152.4608,152.4608 l 0,1108.8062 m 297.0016,-988.0255 180.181,0 c 273.2413,0 392.0422,184.1413 392.0422,437.5824 0,237.6011 -116.8209,425.7024 -372.242,425.7024 l -199.9812,0 0,-863.2848"
       id="path3075"
       style="font-size:110.08300781%" />
    <path
       d="m 9403.5854,3665 c 0,80.9999 59.4001,135 138.6,135 l 464.3996,0 c 84.6,0 127.8,-63.0001 127.8,-124.2 0,-62.9999 -41.4,-124.2 -127.8,-124.2 l -332.9996,0 0,-273.6 295.2,0 c 86.3996,0 131.3996,-63.0001 131.3996,-124.2 0,-62.9999 -43.2,-124.2 -131.3996,-124.2 l -295.2,0 0,-262.8 316.8,0 c 84.5996,0 127.7996,-63.0001 127.7996,-124.2 0,-62.9999 -41.4,-124.2 -127.7996,-124.2 l -446.4,0 c -95.3999,0 -140.4,66.6001 -140.4,156.6 l 0,990"
       id="path3077"
       style="font-size:1800px;font-weight:600;fill:#202088;font-family:VAG Rounded Std Thin" />
    <path
       d="m 11366.073,2532.793 c 0,-99.0005 -63.36,-154.4409 -148.501,-154.4409 -85.14,0 -148.5,55.4404 -148.5,154.4409 l 0,851.4047 c 0,63.3603 0,166.3209 -110.881,166.3209 -89.1,0 -158.401,-73.2604 -237.601,-73.2604 -65.341,0 -110.881,67.3204 -110.881,120.7807 0,172.2608 227.701,225.7212 364.322,225.7212 180.181,0 392.042,-87.1208 392.042,-419.7623 l 0,-871.2048"
       id="path3079"
       style="font-size:110.08300781%" />
    <path
       d="m 12091.609,3573.2 c -228.6,0 -338.4,-194.4002 -338.4,-414 0,-217.7998 113.4,-414 338.4,-414 224.999,0 338.4,196.2002 338.4,414 0,219.5998 -109.801,414 -338.4,414 m 0,248.4 c 368.999,0 619.2,-289.8004 619.2,-662.4 0,-365.3996 -257.401,-662.4 -619.2,-662.4 -367.2,0 -619.2,288.0004 -619.2,662.4 0,372.5996 253.8,662.4 619.2,662.4"
       id="path3081"
       style="font-size:1800px;font-weight:600;fill:#202088;font-family:VAG Rounded Std Thin" />
    <path
       d="m 12812.79,3670.4 c 0,89.9999 57.6,140.4 135,140.4 77.4,0 135,-50.4001 135,-140.4 l 0,-671.4 3.6,0 570.6,752.4 c 25.2,32.4 79.2,59.4 113.4,59.4 77.4,0 135,-50.4001 135,-140.4 l 0,-1022.4 c 0,-89.9999 -57.6,-140.4 -135,-140.4 -77.4,0 -135,50.4001 -135,140.4 l 0,680.4 -3.6,0 -570.6,-761.4 c -23.4,-32.4 -79.2,-59.4 -113.4,-59.4 -77.4,0 -135,50.4001 -135,140.4 l 0,1022.4"
       id="path3083"
       style="font-size:1800px;font-weight:600;fill:#202088;font-family:VAG Rounded Std Thin" />
    <path
       d="m 14748.774,3040.4 c -68.4,0 -126,46.8001 -126,122.4 0,73.7999 52.2,126 126,126 l 183.6,0 c 0,205.1998 -163.8,284.4 -306,284.4 -228.6,0 -338.4,-194.4002 -338.4,-414 0,-217.7998 113.4,-414 338.4,-414 235.8,0 261,131.4 383.4,131.4 63,0 111.6,-48.6001 111.6,-126 0,-125.9999 -223.2,-253.8 -495,-253.8 -367.199,0 -619.2,288.0004 -619.2,662.4 0,372.5996 253.801,662.4 619.2,662.4 360,0 586.8,-261.0003 586.8,-608.4 0,-115.1999 -45,-172.8 -158.4,-172.8 l -306,0"
       id="path3085"
       style="font-size:1800px;font-weight:600;fill:#202088;font-family:VAG Rounded Std Thin" />
    <path
       d="m 15323.199,3665 c 0,80.9999 59.4,135 138.6,135 l 464.4,0 c 84.6,0 127.8,-63.0001 127.8,-124.2 0,-62.9999 -41.4,-124.2 -127.8,-124.2 l -333,0 0,-273.6 295.2,0 c 86.4,0 131.4,-63.0001 131.4,-124.2 0,-62.9999 -43.2,-124.2 -131.4,-124.2 l -295.2,0 0,-262.8 316.8,0 c 84.6,0 127.8,-63.0001 127.8,-124.2 0,-62.9999 -41.4,-124.2 -127.8,-124.2 l -446.4,0 c -95.4,0 -140.4,66.6001 -140.4,156.6 l 0,990"
       id="path3087"
       style="font-size:1800px;font-weight:600;fill:#202088;font-family:VAG Rounded Std Thin" />
    <path
       d="m 17271.827,3550.5186 c -251.461,0 -372.242,-213.8414 -372.242,-455.4025 0,-239.5811 124.741,-455.4025 372.242,-455.4025 247.501,0 372.242,215.8214 372.242,455.4025 0,241.5611 -120.781,455.4025 -372.242,455.4025 m 0,273.2415 c 405.902,0 681.124,-318.7821 681.124,-728.644 0,-401.9418 -283.142,-728.6441 -681.124,-728.6441 -403.922,0 -681.124,316.8022 -681.124,728.6441 0,409.8619 279.182,728.644 681.124,728.644"
       id="path3089"
       style="font-size:110.08300781%" />
    <path
       d="m 18058.11,3670.4 c 0,89.9999 57.6,140.4 135,140.4 77.4,0 135,-50.4001 135,-140.4 l 0,-671.4 3.6,0 570.6,752.4 c 25.2,32.4 79.2,59.4 113.4,59.4 77.4,0 135,-50.4001 135,-140.4 l 0,-1022.4 c 0,-89.9999 -57.6,-140.4 -135,-140.4 -77.4,0 -135,50.4001 -135,140.4 l 0,680.4 -3.6,0 -570.6,-761.4 c -23.4,-32.4 -79.2,-59.4 -113.4,-59.4 -77.4,0 -135,50.4001 -135,140.4 l 0,1022.4"
       id="path3091"
       style="font-size:1800px;font-weight:600;fill:#202088;font-family:VAG Rounded Std Thin" />
    <path
       d="m 19302.895,3665 c 0,102.5999 82.8,135 142.2,135 l 313.2,0 c 370.799,0 615.6,-244.8004 615.6,-622.8 0,-399.5996 -230.401,-658.8 -633.6,-658.8 l -298.8,0 c -81,0 -138.6,55.8001 -138.6,138.6 l 0,1008 m 270,-898.2 163.8,0 c 248.399,0 356.4,167.4002 356.4,397.8 0,215.9998 -106.201,387 -338.4,387 l -181.8,0 0,-784.8"
       id="path3093"
       style="font-size:1800px;font-weight:600;fill:#202088;font-family:VAG Rounded Std Thin" />
    <path
       d="m 20505.238,3665 c 0,80.9999 59.4,135 138.6,135 l 464.4,0 c 84.6,0 127.8,-63.0001 127.8,-124.2 0,-62.9999 -41.4,-124.2 -127.8,-124.2 l -333,0 0,-273.6 295.2,0 c 86.4,0 131.4,-63.0001 131.4,-124.2 0,-62.9999 -43.2,-124.2 -131.4,-124.2 l -295.2,0 0,-262.8 316.8,0 c 84.6,0 127.8,-63.0001 127.8,-124.2 0,-62.9999 -41.4,-124.2 -127.8,-124.2 l -446.4,0 c -95.4,0 -140.4,66.6001 -140.4,156.6 l 0,990"
       id="path3095"
       style="font-size:1800px;font-weight:600;fill:#202088;font-family:VAG Rounded Std Thin" />
    <path
       d="m 21338.441,3670.4 c 0,89.9999 57.6,140.4 135,140.4 77.4,0 135,-50.4001 135,-140.4 l 0,-390.6 3.6,0 399.6,484.2 c 28.8,34.2 72,46.8 104.4,46.8 79.2,0 135,-68.4001 135,-138.6 0,-25.2 -10.8,-52.2 -36,-79.2 l -306,-327.6 c 183.6,-28.8 333,-142.2002 333,-340.2 0,-282.5997 -171,-406.8 -448.2,-406.8 l -316.8,0 c -90,0 -138.6,54.0001 -138.6,140.4 l 0,1011.6 m 270,-903.6 185.4,0 c 99,0 167.4,55.8001 167.4,158.4 0,100.7999 -68.4,160.2 -167.4,160.2 l -185.4,0 0,-318.6"
       id="path3097"
       style="font-size:1800px;font-weight:600;fill:#202088;font-family:VAG Rounded Std Thin" />
    <path
       d="m 22635.595,3562.4 576,-799.2 c 23.4,-30.6 39.6,-75.6 39.6,-115.2 0,-62.9999 -46.801,-129.6 -151.2,-129.6 l -658.8,0 c -68.4,0 -126,54.0001 -126,122.4 0,73.7999 54,115.2 126,115.2 l 473.4,0 -579.6,810 c -23.4,32.4 -36,68.4 -36,104.4 0,75.5999 55.8,129.6 151.2,129.6 l 707.4,0 c 64.799,0 129.6,-50.4001 129.6,-118.8 0,-77.3999 -54.001,-118.8 -129.6,-118.8 l -522,0"
       id="path3099"
       style="font-size:1800px;font-weight:600;fill:#202088;font-family:VAG Rounded Std Thin" />
    <path
       d="m 23977.945,3573.2 c -228.6,0 -338.4,-194.4002 -338.4,-414 0,-217.7998 113.4,-414 338.4,-414 224.999,0 338.4,196.2002 338.4,414 0,219.5998 -109.801,414 -338.4,414 m 0,248.4 c 368.999,0 619.2,-289.8004 619.2,-662.4 0,-365.3996 -257.401,-662.4 -619.2,-662.4 -367.2,0 -619.2,288.0004 -619.2,662.4 0,372.5996 253.8,662.4 619.2,662.4"
       id="path3101"
       style="font-size:1800px;font-weight:600;fill:#202088;font-family:VAG Rounded Std Thin" />
    <path
       d="m 24709.926,3665 c 0,80.9999 59.4,135 138.6,135 l 464.4,0 c 84.6,0 127.8,-63.0001 127.8,-124.2 0,-62.9999 -41.4,-124.2 -127.8,-124.2 l -333,0 0,-273.6 295.2,0 c 86.4,0 131.4,-63.0001 131.4,-124.2 0,-62.9999 -43.2,-124.2 -131.4,-124.2 l -295.2,0 0,-262.8 316.8,0 c 84.6,0 127.8,-63.0001 127.8,-124.2 0,-62.9999 -41.4,-124.2 -127.8,-124.2 l -446.4,0 c -95.4,0 -140.4,66.6001 -140.4,156.6 l 0,990"
       id="path3103"
       style="font-size:1800px;font-weight:600;fill:#202088;font-family:VAG Rounded Std Thin" />
    <path
       d="m 25543.129,3681.2 c 0,79.1999 57.6,129.6 135,129.6 81,0 135,-59.4001 135,-129.6 l 0,-459 466.2,504 c 50.4,53.9999 84.6,84.6 136.8,84.6 73.8,0 140.4,-39.6001 140.4,-124.2 0,-53.9999 -32.4,-93.6 -75.6,-136.8 l -415.8,-433.8 340.2,-334.8 c 59.4,-59.3999 88.2,-97.2 88.2,-144 0,-77.3999 -64.8,-129.6 -133.2,-129.6 -50.4,0 -84.6,28.8 -104.4,50.4 l -442.8,471.6 0,-388.8 c 0,-82.7999 -57.6,-133.2 -135,-133.2 -81,0 -135,59.4001 -135,133.2 l 0,1040.4"
       id="path3105"
       style="font-size:1800px;font-weight:600;fill:#202088;font-family:VAG Rounded Std Thin" />
    <path
       d="m 26643.52,3665 c 0,80.9999 59.4,135 138.6,135 l 464.4,0 c 84.599,0 127.8,-63.0001 127.8,-124.2 0,-62.9999 -41.401,-124.2 -127.8,-124.2 l -333,0 0,-273.6 295.2,0 c 86.399,0 131.4,-63.0001 131.4,-124.2 0,-62.9999 -43.201,-124.2 -131.4,-124.2 l -295.2,0 0,-262.8 316.8,0 c 84.599,0 127.8,-63.0001 127.8,-124.2 0,-62.9999 -41.401,-124.2 -127.8,-124.2 l -446.4,0 c -95.4,0 -140.4,66.6001 -140.4,156.6 l 0,990"
       id="path3107"
       style="font-size:1800px;font-weight:600;fill:#202088;font-family:VAG Rounded Std Thin" />
    <path
       d="m 27476.723,3670.4 c 0,89.9999 57.6,140.4 135,140.4 77.4,0 135,-50.4001 135,-140.4 l 0,-390.6 3.6,0 399.6,484.2 c 28.8,34.2 72,46.8 104.4,46.8 79.2,0 135,-68.4001 135,-138.6 0,-25.2 -10.8,-52.2 -36,-79.2 l -306,-327.6 c 183.599,-28.8 333,-142.2002 333,-340.2 0,-282.5997 -171.001,-406.8 -448.2,-406.8 l -316.8,0 c -90,0 -138.6,54.0001 -138.6,140.4 l 0,1011.6 m 270,-903.6 185.4,0 c 99,0 167.4,55.8001 167.4,158.4 0,100.7999 -68.4,160.2 -167.4,160.2 l -185.4,0 0,-318.6"
       id="path3109"
       style="font-size:1800px;font-weight:600;fill:#202088;font-family:VAG Rounded Std Thin" />
    <path
       d="m 28883.676,2496.8 c -239.4,0 -446.4,156.6003 -446.4,408.6 0,417.5996 601.2,289.8002 601.2,502.2 0,88.1999 -64.8,154.8 -183.6,154.8 -117,0 -217.8,-70.2 -302.4,-70.2 -73.8,0 -120.6,57.6001 -120.6,127.8 0,169.1998 298.8,201.6 437.4,201.6 248.4,0 460.8,-160.2003 460.8,-417.6 0,-464.3995 -601.2,-345.6002 -601.2,-531 0,-75.5999 70.2,-117 147.6,-117 108,0 165.6,54 239.4,54 73.8,0 120.6,-63.0001 120.6,-133.2 0,-142.1999 -252,-180 -352.8,-180"
       id="path3111"
       style="font-size:1800px;font-weight:600;fill:#202088;font-family:VAG Rounded Std Thin" />
  </g>
  <g
     transform="matrix(0.26462721,0,0,0.26462721,1121.9719,-500.86909)"
     id="title-sub"
     style="font-size:1800px;font-weight:600;fill:#202088;font-family:VAG Rounded Std Thin">
    <path
       d="m 8017.8201,5407.9389 c -3.96,9.9001 -13.8601,33.6603 -13.8601,65.3404 0,79.2004 67.3205,138.6008 146.5208,138.6008 81.1804,0 122.7607,-43.5603 142.5608,-104.9406 l 59.4004,-184.141 550.443,0 59.4003,186.121 c 19.8001,59.4003 61.3805,102.9606 144.5408,102.9606 73.2604,0 136.6208,-53.4604 136.6208,-130.6808 0,-13.86 -3.96,-41.5802 -15.8401,-73.2604 L 8839.5247,4330.813 c -33.6602,-95.0405 -106.9207,-164.341 -211.8612,-164.341 -100.9805,0 -178.201,73.2605 -211.8612,164.341 l -397.9822,1077.1259 m 607.8634,-932.5851 3.96,0 184.141,574.2031 -376.2021,0 188.1011,-574.2031"
       id="path3114"
       style="font-size:110.08300781%" />
    <path
       d="m 9294.1085,5450.6 c -1.8,10.8 -1.8,21.6 -1.8,30.6 0,79.1999 57.6001,129.6 129.6,129.6 91.7999,0 127.8,-41.4001 140.4,-126 l 106.2,-732.6 3.6,0 216,754.2 c 12.6,43.2 46.8001,104.4 144.0005,104.4 97.199,0 131.4,-61.2 144,-104.4 l 216,-754.2 3.6,0 106.2,732.6 c 12.6,84.5999 48.6,126 140.4,126 71.999,0 129.6,-50.4001 129.6,-129.6 0,-9 0,-19.8 -1.8,-30.6 l -167.4,-1004.4 c -10.8,-64.7999 -81.001,-138.6 -176.4,-138.6 -90,0 -160.2,64.8001 -180,129.6 l -212.4,712.8 -3.6,0 -212.4005,-712.8 c -19.8,-64.7999 -90.0001,-129.6 -180,-129.6 -95.3999,0 -165.6,73.8001 -176.4,138.6 l -167.4,1004.4"
       id="path3116"
       style="font-size:1800px;font-weight:600;fill:#202088;font-family:VAG Rounded Std Thin" />
    <path
       d="m 10894.562,5465 c 0,80.9999 59.4,135 138.6,135 l 464.4,0 c 84.599,0 127.8,-63.0001 127.8,-124.2 0,-62.9999 -41.401,-124.2 -127.8,-124.2 l -333,0 0,-273.6 295.2,0 c 86.399,0 131.4,-63.0001 131.4,-124.2 0,-62.9999 -43.201,-124.2 -131.4,-124.2 l -295.2,0 0,-262.8 316.8,0 c 84.599,0 127.8,-63.0001 127.8,-124.2 0,-62.9999 -41.401,-124.2 -127.8,-124.2 l -446.4,0 c -95.4,0 -140.4,66.6001 -140.4,156.6 l 0,990"
       id="path3118"
       style="font-size:1800px;font-weight:600;fill:#202088;font-family:VAG Rounded Std Thin" />
    <path
       d="m 11727.765,5470.4 c 0,89.9999 57.6,140.4 135,140.4 77.4,0 135,-50.4001 135,-140.4 l 0,-390.6 3.6,0 399.6,484.2 c 28.8,34.2 72,46.8 104.4,46.8 79.2,0 135,-68.4001 135,-138.6 0,-25.2 -10.8,-52.2 -36,-79.2 l -306,-327.6 c 183.599,-28.8 333,-142.2002 333,-340.2 0,-282.5997 -171.001,-406.8 -448.2,-406.8 l -316.8,0 c -90,0 -138.6,54.0001 -138.6,140.4 l 0,1011.6 m 270,-903.6 185.4,0 c 99,0 167.4,55.8001 167.4,158.4 0,100.7999 -68.4,160.2 -167.4,160.2 l -185.4,0 0,-318.6"
       id="path3120"
       style="font-size:1800px;font-weight:600;fill:#202088;font-family:VAG Rounded Std Thin" />
    <path
       d="m 13134.718,4296.8 c -239.4,0 -446.4,156.6003 -446.4,408.6 0,417.5996 601.2,289.8002 601.2,502.2 0,88.1999 -64.8,154.8 -183.6,154.8 -117,0 -217.8,-70.2 -302.4,-70.2 -73.8,0 -120.6,57.6001 -120.6,127.8 0,169.1998 298.8,201.6 437.4,201.6 248.4,0 460.8,-160.2003 460.8,-417.6 0,-464.3995 -601.2,-345.6002 -601.2,-531 0,-75.5999 70.2,-117 147.6,-117 108,0 165.6,54 239.4,54 73.8,0 120.6,-63.0001 120.6,-133.2 0,-142.1999 -252,-180 -352.8,-180"
       id="path3122"
       style="font-size:1800px;font-weight:600;fill:#202088;font-family:VAG Rounded Std Thin" />
    <path
       d="m 13696.515,5470.4 c 0,89.9999 57.6,140.4 135,140.4 77.4,0 135,-50.4001 135,-140.4 l 0,-392.4 279,0 c 86.4,0 129.6,-63.0001 129.6,-126 0,-61.1999 -43.2,-122.4 -129.6,-122.4 l -279,0 0,-262.8 331.2,0 c 81,0 120.6,-63.0001 120.6,-124.2 0,-62.9999 -41.4,-124.2 -120.6,-124.2 l -460.8,0 c -90,0 -140.4,66.6001 -140.4,140.4 l 0,1011.6"
       id="path3124"
       style="font-size:1800px;font-weight:600;fill:#202088;font-family:VAG Rounded Std Thin" />
    <path
       d="m 15063.362,5373.2 c -228.6,0 -338.4,-194.4002 -338.4,-414 0,-217.7998 113.4,-414 338.4,-414 224.999,0 338.4,196.2002 338.4,414 0,219.5998 -109.801,414 -338.4,414 m 0,248.4 c 368.999,0 619.2,-289.8004 619.2,-662.4 0,-365.3996 -257.401,-662.4 -619.2,-662.4 -367.2,0 -619.2,288.0004 -619.2,662.4 0,372.5996 253.8,662.4 619.2,662.4"
       id="path3126"
       style="font-size:1800px;font-weight:600;fill:#202088;font-family:VAG Rounded Std Thin" />
    <path
       d="m 16364.143,5373.2 c -228.6,0 -338.4,-194.4002 -338.4,-414 0,-217.7998 113.4,-414 338.4,-414 225,0 338.4,196.2002 338.4,414 0,219.5998 -109.8,414 -338.4,414 m 0,248.4 c 368.999,0 619.2,-289.8004 619.2,-662.4 0,-365.3996 -257.401,-662.4 -619.2,-662.4 -367.2,0 -619.2,288.0004 -619.2,662.4 0,372.5996 253.8,662.4 619.2,662.4"
       id="path3128"
       style="font-size:1800px;font-weight:600;fill:#202088;font-family:VAG Rounded Std Thin" />
    <path
       d="m 17096.124,5470.4 c 0,89.9999 57.6,140.4 135,140.4 77.4,0 135,-50.4001 135,-140.4 l 0,-390.6 3.6,0 399.6,484.2 c 28.8,34.2 72,46.8 104.4,46.8 79.2,0 135,-68.4001 135,-138.6 0,-25.2 -10.8,-52.2 -36,-79.2 l -306,-327.6 c 183.6,-28.8 333,-142.2002 333,-340.2 0,-282.5997 -171,-406.8 -448.2,-406.8 l -316.8,0 c -90,0 -138.6,54.0001 -138.6,140.4 l 0,1011.6 m 270,-903.6 185.4,0 c 99,0 167.4,55.8001 167.4,158.4 0,100.7999 -68.4,160.2 -167.4,160.2 l -185.4,0 0,-318.6"
       id="path3130"
       style="font-size:1800px;font-weight:600;fill:#202088;font-family:VAG Rounded Std Thin" />
    <path
       d="m 18282.437,5470.4 c 0,89.9999 57.6,140.4 135,140.4 77.399,0 135,-50.4001 135,-140.4 l 0,-903.6 196.2,0 c 86.399,0 122.4,-63.0001 122.4,-124.2 0,-62.9999 -45.001,-124.2 -122.4,-124.2 l -662.4,0 c -77.4,0 -122.4,61.2001 -122.4,124.2 0,61.1999 36,124.2 122.4,124.2 l 196.2,0 0,903.6"
       id="path3132"
       style="font-size:1800px;font-weight:600;fill:#202088;font-family:VAG Rounded Std Thin" />
  </g>
</svg>
